<svg preserveAspectRatio="none" width="100%" height="100%" overflow="visible" style="display: block;" viewBox="0 0 15.51 15.5541" fill="none" xmlns="http://www.w3.org/2000/svg">
<path id="Vector" d="M2.25186 13.1543C1.8648 13.7621 1.54729 14.4183 1.16527 15.0281C0.957623 15.3597 0.717725 15.7297 0.260104 15.4625C-0.197517 15.1954 0.0514529 14.7489 0.231881 14.4062C0.604832 13.6986 1.06044 13.0313 1.44952 12.3328C0.843722 9.40763 1.00903 6.23856 2.97357 3.8557C5.54391 0.737027 10.6685 -0.181239 14.5169 0.0284201C14.66 0.0364839 14.8828 0.0546275 15.0209 0.0778109C15.3586 0.135266 15.5682 0.419515 15.4957 0.764242C15.4604 0.933582 15.0985 1.31762 14.9886 1.53736C14.6953 2.12501 14.5552 2.93643 14.4403 3.58557C14.0401 5.84948 13.9252 8.14767 12.7278 10.1808C10.5435 13.8851 6.0096 13.8074 2.25186 13.1533V13.1543ZM13.9454 1.13619C9.77741 1.1382 4.27689 2.08267 2.70344 6.56212C2.22666 7.91986 2.14099 9.48223 2.36577 10.8974C4.11057 8.35329 6.14366 5.66401 8.86822 4.10669C9.17162 3.93332 10.229 3.36885 10.5263 3.39304C10.988 3.43034 11.2057 3.97969 10.9003 4.32844C10.7763 4.46956 9.87519 4.82134 9.61815 4.96045C7.14055 6.30206 4.48453 9.45299 3.06228 11.8701C3.03405 11.9175 2.90302 12.111 2.9383 12.1443C6.15676 12.615 10.0274 12.7259 11.8407 9.50238C13.1572 7.16186 12.9344 4.39598 13.6874 1.89822C13.765 1.64118 13.8617 1.3902 13.9464 1.13719L13.9454 1.13619Z" fill="var(--fill-0, #1A3E73)"/>
</svg>
