<svg preserveAspectRatio="none" width="100%" height="100%" overflow="visible" style="display: block;" viewBox="0 0 15.51 15.4965" fill="none" xmlns="http://www.w3.org/2000/svg">
<g id="Vector">
<path d="M7.29422 0.0135116C13.5809 -0.346703 17.6779 6.56941 14.2893 11.917C11.3377 16.5747 4.55098 16.7098 1.39749 12.1883C-2.06618 7.22168 1.28791 0.357333 7.29422 0.0135116ZM7.32657 1.0467C2.10584 1.37327 -0.769408 7.3498 2.26933 11.6387C5.04363 15.5545 10.9887 15.3789 13.4821 11.2707C16.3112 6.6091 12.7539 0.707194 7.32657 1.0467Z" fill="var(--fill-0, #1A3E73)"/>
<path d="M8.27262 4.58629C9.07113 4.68767 9.93349 5.40853 9.81658 6.2821C9.74238 6.83644 8.92316 6.88476 8.79374 6.30928C8.77476 6.22516 8.79116 6.1419 8.76441 6.04786C8.55605 5.32268 6.3486 5.32743 6.76791 6.55906C6.94306 7.07371 8.07806 7.28035 8.54957 7.49001C10.3412 8.28679 10.2631 10.5779 8.27089 10.92C8.3149 11.3644 8.26442 11.9545 7.67125 11.8881C7.19672 11.8346 7.21311 11.2772 7.23468 10.92C6.45688 10.8208 5.711 10.2117 5.68468 9.38555C5.66958 8.91706 6.11565 8.59136 6.50951 8.88427C6.87965 9.15994 6.54359 9.56976 7.11691 9.82687C7.79722 10.1319 9.13239 9.89935 8.72343 8.89851C8.54224 8.45461 7.39171 8.21044 6.956 8.01803C5.1765 7.23333 5.24682 4.94133 7.23296 4.58629C7.18162 4.1618 7.26661 3.55095 7.83044 3.62342C8.31533 3.68554 8.28815 4.21788 8.27262 4.58629Z" fill="var(--fill-0, #1A3E73)"/>
</g>
</svg>
