<svg preserveAspectRatio="none" width="100%" height="100%" overflow="visible" style="display: block;" viewBox="0 0 15.5052 13.7954" fill="none" xmlns="http://www.w3.org/2000/svg">
<path id="Vector" d="M15.5049 4.30735V5.00358C15.2538 8.61141 10.7844 11.212 8.43406 13.5108C7.97332 13.9101 7.5357 13.8699 7.07344 13.5108C6.14779 12.7926 5.16032 11.8867 4.27144 11.1051C1.96659 9.07746 -0.702683 6.79271 0.169126 3.33808C0.562748 1.778 1.77623 0.468962 3.3693 0.119328C5.13301 -0.267847 6.70409 0.420802 7.73934 1.8546C7.7784 1.86484 8.11628 1.41965 8.17733 1.35442C10.8614 -1.52114 15.3293 0.528499 15.4772 4.25919L15.5052 4.30735H15.5049ZM4.05378 0.925154C2.61012 1.0374 1.4812 2.07113 1.08454 3.4363C0.306021 6.11543 2.20929 8.0077 3.99879 9.65159C5.13529 10.6959 6.40565 11.7949 7.60207 12.7702C7.63544 12.7972 7.73024 12.8783 7.76437 12.8722C8.73098 12.0315 9.7302 11.2253 10.6911 10.3782C12.6972 8.60951 15.3008 6.45748 14.423 3.43592C13.6581 0.803807 10.5231 0.00821925 8.69344 2.14318C8.37718 2.51216 8.13107 3.26489 7.52054 3.01158C7.28808 2.91488 6.9813 2.33544 6.786 2.11133C6.07384 1.29489 5.1588 0.839452 4.05416 0.925154H4.05378Z" fill="var(--fill-0, #1A3E73)"/>
</svg>
