<svg preserveAspectRatio="none" width="100%" height="100%" overflow="visible" style="display: block;" viewBox="0 0 15 17.1076" fill="none" xmlns="http://www.w3.org/2000/svg">
<g id="Vector">
<path d="M3.23186 17.1072C2.45254 16.9594 1.93466 16.3517 1.89832 15.5569L1.0292 5.02386L0.997875 4.95495C0.0105593 4.59703 -0.327316 3.36205 0.364723 2.55683C0.561017 2.32837 1.04549 2.03894 1.34744 2.03894H3.99866V1.38867C3.99866 0.666141 4.77465 0.0877007 5.4479 0.0371655C6.8491 -0.0680813 8.43156 0.0839419 9.84153 0.0810184C10.3853 0.169142 11.0013 0.836123 11.0013 1.38867V2.03894H13.6526C13.9545 2.03894 14.439 2.32837 14.6353 2.55683C15.3273 3.36246 14.9894 4.59703 14.0021 4.95537L13.9708 5.02428C13.6338 8.68495 13.3986 12.3594 13.0257 16.0142C12.8799 16.5513 12.3207 17.0416 11.7681 17.1076H3.23186V17.1072ZM4.99893 1.42208C4.96426 1.58997 5.0244 1.85769 4.99893 2.03894H10.0011V1.42208C10.0011 1.40705 9.87035 1.19697 9.84237 1.17149C9.76176 1.09799 9.62728 1.04787 9.51911 1.03701C8.23902 0.910464 6.75095 1.13599 5.44831 1.03785C5.27415 1.04829 5.03317 1.25627 4.99893 1.42208ZM13.858 3.18371C13.8113 3.13694 13.7177 3.10436 13.6605 3.06468L1.44726 3.03837C0.850446 3.15782 0.850446 3.92086 1.44726 4.03989H13.5536C13.957 3.97933 14.165 3.49026 13.8585 3.18371H13.858ZM12.9689 5.03931H2.03113L2.89858 15.4901C2.94452 15.8363 3.01887 16.0735 3.41354 16.1086H11.553C11.9736 16.0777 12.0517 15.868 12.1014 15.4901L12.9689 5.03931Z" fill="var(--fill-0, #1A3E73)"/>
<path d="M4.38958 6.04708C4.55038 6.01409 4.77423 6.07882 4.88115 6.20746C5.01313 6.36616 5.01396 6.68065 5.03192 6.88989C5.13633 8.08352 5.15763 9.29303 5.23281 10.4896C5.31467 11.7943 5.46711 13.1554 5.50052 14.4551C5.51054 14.8431 5.30548 15.2056 4.86445 15.0912C4.47604 14.9906 4.49399 14.58 4.46559 14.2568C4.36118 13.0631 4.33988 11.8536 4.26471 10.6571C4.18285 9.3515 4.03667 8.03048 3.99699 6.7245C3.98781 6.42672 4.0492 6.11725 4.38916 6.04708H4.38958Z" fill="var(--fill-0, #1A3E73)"/>
<path d="M10.392 6.0471C10.8481 5.95355 11.0143 6.34029 11.0026 6.72452C10.9224 9.37699 10.5841 12.0341 10.4993 14.6886C10.4141 15.0541 10.0324 15.232 9.71122 15.014C9.50406 14.8732 9.49279 14.6548 9.49989 14.4226C9.58008 11.7701 9.91837 9.11304 10.0032 6.45848C10.0508 6.26386 10.1886 6.08928 10.392 6.04752V6.0471Z" fill="var(--fill-0, #1A3E73)"/>
<path d="M7.39077 6.04709C7.70025 5.98361 7.98258 6.21039 8.00179 6.52112L8.00095 14.6577C7.89654 15.2716 7.05958 15.2512 6.99818 14.6251L6.99902 6.48855C7.03118 6.28056 7.18028 6.09011 7.39077 6.04709Z" fill="var(--fill-0, #1A3E73)"/>
</g>
</svg>
