<svg preserveAspectRatio="none" width="100%" height="100%" overflow="visible" style="display: block;" viewBox="0 0 13.7321 12.7548" fill="none" xmlns="http://www.w3.org/2000/svg">
<path id="Arrow 12" d="M0.866025 5.51135C0.387733 5.51135 0 5.89908 0 6.37738C0 6.85567 0.387733 7.2434 0.866025 7.2434V6.37738V5.51135ZM13.4784 6.98975C13.8166 6.65155 13.8166 6.10321 13.4784 5.76501L7.96705 0.253653C7.62884 -0.0845509 7.08051 -0.0845509 6.7423 0.253653C6.4041 0.591857 6.4041 1.14019 6.7423 1.4784L11.6413 6.37738L6.7423 11.2764C6.4041 11.6146 6.4041 12.1629 6.7423 12.5011C7.08051 12.8393 7.62884 12.8393 7.96705 12.5011L13.4784 6.98975ZM0.866025 6.37738V7.2434H12.866V6.37738V5.51135H0.866025V6.37738Z" fill="var(--stroke-0, white)"/>
</svg>
