<svg preserveAspectRatio="xMidYMid meet" width="100%" height="100%" overflow="visible" style="display: block;" viewBox="0 0 30.9139 33" fill="none" xmlns="http://www.w3.org/2000/svg">
<g id="Layer_1" clip-path="url(#clip0_1_1817)">
<path id="Vector" d="M12.6089 9.71098C12.7482 9.74941 12.759 9.67135 12.8335 9.62211C13.3835 9.25221 13.9276 8.71898 14.504 8.32627C18.3555 5.69617 23.7766 3.80705 28.47 3.8659C30.3855 3.88992 30.4948 5.71538 30.6665 7.16014C31.0761 10.6129 31.0629 15.6305 29.9616 18.9296C26.7934 28.4147 16.3247 33.6137 6.81426 30.3879C5.30105 31.1794 3.77583 32.0645 2.17735 32.677C1.733 32.8475 1.25382 33.1369 0.763823 32.9268C0.273831 32.7166 0.24741 31.9684 0.630517 31.6441C1.01362 31.3199 2.33588 30.9272 2.87031 30.6725C9.08408 27.7086 14.0801 23.498 17.9856 17.8295C18.4432 17.1653 18.9332 16.1277 19.4015 15.5597C19.9023 14.952 20.7478 15.1814 20.8415 15.9103C20.8895 16.2886 20.0513 17.5424 19.8027 17.9388C16.954 22.4832 13.0256 26.247 8.65413 29.3083C16.47 31.2322 24.7194 27.2018 27.9344 19.8675C29.2926 16.7678 29.4776 13.1169 29.3347 9.75301C29.2902 8.71538 29.1726 6.90673 28.9324 5.92915C28.7762 5.29384 27.9716 5.45718 27.3939 5.4824C17.2482 5.92675 8.20137 13.7162 5.83788 23.4812C5.67936 24.1345 5.4884 25.96 5.22539 26.3755C4.89513 26.8955 4.10009 26.7706 3.86831 26.2302C3.6101 25.6273 4.30305 23.5292 4.39433 22.7894C-0.789019 17.2542 -1.48317 8.76822 2.82587 2.4908C3.24981 1.87471 4.29585 0.480394 4.93356 0.193364C5.92675 -0.253394 6.56446 0.140522 7.38592 0.684557C10.297 2.6109 12.4288 6.20657 12.6089 9.71098ZM7.84469 15.0144C8.83788 13.6669 9.8647 12.3423 11.0729 11.1786C11.3491 7.32827 9.13572 3.27503 5.67936 1.57087C0.458779 6.55605 0.116505 15.5885 4.96598 20.9484C5.1161 20.3959 5.33588 19.8615 5.55446 19.3331C6.08408 18.048 6.28224 17.7202 6.31947 16.2322C6.35069 14.9676 6.25582 13.4568 6.12491 12.1946C5.96879 10.6826 5.62771 9.19096 5.3563 7.70057C5.40193 7.05926 6.29185 6.74701 6.71578 7.19977C6.9884 7.4916 7.27904 9.3639 7.36671 9.87551C7.65734 11.5713 7.84349 13.2934 7.84589 15.0168L7.84469 15.0144Z" fill="var(--fill-0, #1A3E73)"/>
</g>
<defs>
<clipPath id="clip0_1_1817">
<rect width="30.9139" height="33" fill="white"/>
</clipPath>
</defs>
</svg>
