<svg preserveAspectRatio="xMidYMid meet" width="100%" height="100%" overflow="visible" style="display: block;" viewBox="0 0 38.8611 24" fill="none" xmlns="http://www.w3.org/2000/svg">
<g id="Layer_1" clip-path="url(#clip0_1_1820)">
<path id="Vector" d="M-0.000143687 14.9652C0.365858 11.877 2.30537 9.14977 5.21615 8.00107C6.72983 7.40391 8.25366 7.35322 9.85758 7.51949C9.88191 7.30861 9.97823 7.12713 10.0806 6.94666C11.792 3.90813 15.157 2.77769 18.4338 3.95579C19.4436 2.07103 21.5129 0.658727 23.6004 0.204519C29.6389 -1.10944 34.7406 4.12409 33.5484 10.1038C35.6237 10.5834 37.4588 12.1782 38.2831 14.1339C40.183 18.6374 37.1729 23.5577 32.3692 24.0007H7.62304C3.64568 23.7057 0.322263 20.3772 -0.000143687 16.407V14.9652ZM24.5727 1.55498C22.9566 1.71922 21.2584 2.73003 20.2232 3.95984C19.8958 4.34916 19.3067 5.54247 18.9884 5.68542C18.5189 5.89732 17.8975 5.40154 17.4179 5.24845C15.1083 4.51037 12.5291 5.51611 11.4189 7.67765C11.1979 8.10753 11.0438 8.95917 10.6048 9.13963C10.1658 9.3201 9.54632 9.00479 9.07083 8.96728C6.63453 8.77464 4.32192 9.65467 2.85183 11.6327C-0.331675 15.9152 2.38647 21.9426 7.62304 22.482H32.3692C38.1553 21.898 39.1935 13.5905 33.6578 11.7016C33.0211 11.4847 31.8106 11.5262 31.7954 10.6807C31.7883 10.2893 32.134 9.45393 32.1756 8.93179C32.5284 4.49719 28.9738 1.10786 24.5717 1.55599L24.5727 1.55498Z" fill="var(--fill-0, #1A3E73)"/>
</g>
<defs>
<clipPath id="clip0_1_1820">
<rect width="38.8611" height="24" fill="white"/>
</clipPath>
</defs>
</svg>
