<svg preserveAspectRatio="xMidYMid meet" width="100%" height="100%" overflow="visible" style="display: block;" viewBox="0 0 24 25.9862" fill="none" xmlns="http://www.w3.org/2000/svg">
<g id="Layer_1" clip-path="url(#clip0_1_1829)">
<path id="Vector" d="M16.6312 0C18.9412 0.151401 22.0651 1.53649 23.5671 3.35255C24.5655 4.56001 23.6878 6.13397 22.1663 5.82068C21.7046 5.72549 21.1447 5.03595 20.7707 4.7264C17.0059 1.61519 12.1401 2.69373 9.47637 6.58893C9.09337 7.14956 8.71487 7.79713 8.50201 8.43422H17.6228C18.8587 8.43422 19.5632 9.93848 18.741 10.8739C18.5499 11.0912 18.0597 11.3813 17.7749 11.3813H7.63707C7.55837 12.4171 7.50816 13.4469 7.63707 14.4805H17.9773C18.0133 14.4805 18.364 14.6544 18.4255 14.6934C19.2799 15.2353 19.3301 16.5476 18.4772 17.1143C18.3783 17.1795 17.9166 17.3766 17.8251 17.3766H8.40007C10.1719 22.0865 15.4117 24.8402 19.9807 21.8691C20.6568 21.4292 21.1312 20.8146 21.7158 20.4031C23.0342 19.4745 24.8136 21.1294 23.5911 22.6344C21.4715 25.2442 17.326 26.4232 14.0881 25.8393C9.83913 25.0733 6.52855 21.3857 5.29186 17.3856L1.36294 17.3766C0.055798 17.2664 -0.489844 15.6183 0.548225 14.784C0.668146 14.6881 1.02191 14.4805 1.15907 14.4805H4.69076C4.64654 13.4477 4.57908 12.4066 4.74172 11.3813H1.36219C0.80006 11.3813 0.148737 10.8087 0.0378098 10.266C-0.178798 9.20471 0.562465 8.51141 1.56606 8.43422C2.793 8.33978 4.11513 8.52341 5.35182 8.40873C6.34417 5.59583 8.11226 3.05649 10.6906 1.50201C12.1049 0.649824 13.7688 0.101933 15.4117 0H16.6312Z" fill="var(--fill-0, #1A3E73)"/>
</g>
<defs>
<clipPath id="clip0_1_1829">
<rect width="24" height="25.9862" fill="white"/>
</clipPath>
</defs>
</svg>
