<svg preserveAspectRatio="xMidYMid meet" width="100%" height="100%" overflow="visible" style="display: block;" viewBox="0 0 34.9186 24" fill="none" xmlns="http://www.w3.org/2000/svg">
<g id="Layer_1" clip-path="url(#clip0_1_1801)">
<path id="Vector" d="M0 20.657V3.34297C0.298691 1.55174 1.68833 0.175754 3.51144 0.00364257L31.3243 0C33.2294 0.140239 34.7137 1.61912 34.8995 3.51417C34.8294 9.37963 35.047 15.276 34.7884 21.1242C34.3385 22.7688 32.9653 23.8898 31.2569 24L3.51144 23.9954C1.79852 23.8771 0.184861 22.3772 0 20.6561V20.657ZM32.7194 6.00114V3.51326C32.7194 3.00148 31.8015 2.16096 31.2542 2.18372L3.78008 2.18099C3.18452 2.08173 2.18099 2.96597 2.18099 3.51326V6.00114H32.7194ZM32.7194 8.18213H2.18099V20.4858C2.18099 20.9976 3.09892 21.8381 3.64622 21.8154L31.1203 21.8181C31.7159 21.9174 32.7194 21.0331 32.7194 20.4858V8.18213Z" fill="var(--fill-0, #1A3E73)"/>
<path id="Vector_2" d="M6.32165 15.2879C6.64493 15.2333 7.53281 15.2333 7.857 15.2879C8.32689 15.3671 8.67658 15.7979 8.72575 16.2596C8.81955 17.1338 8.86144 18.4169 7.7377 18.5435C7.07931 18.6172 5.97379 18.6618 5.60042 18.0217C5.40008 17.6783 5.40008 16.4863 5.48386 16.0856C5.56309 15.7104 5.93918 15.3516 6.32165 15.2879Z" fill="var(--fill-0, #1A3E73)"/>
</g>
<defs>
<clipPath id="clip0_1_1801">
<rect width="34.9186" height="24" fill="white"/>
</clipPath>
</defs>
</svg>
