<svg preserveAspectRatio="none" width="100%" height="100%" overflow="visible" style="display: block;" viewBox="0 0 18.4142 10.4142" fill="none" xmlns="http://www.w3.org/2000/svg">
<path id="Arrow 13" d="M0.707107 4.5C0.316582 4.5 0 4.81658 0 5.20711C0 5.59763 0.316582 5.91421 0.707107 5.91421V5.20711V4.5ZM18.2071 5.70711C18.4832 5.43096 18.4832 4.98325 18.2071 4.70711L13.7071 0.207107C13.431 -0.0690355 12.9832 -0.0690355 12.7071 0.207107C12.431 0.483249 12.431 0.930964 12.7071 1.20711L16.7071 5.20711L12.7071 9.20711C12.431 9.48325 12.431 9.93096 12.7071 10.2071C12.9832 10.4832 13.431 10.4832 13.7071 10.2071L18.2071 5.70711ZM0.707107 5.20711V5.91421H17.7071V5.20711V4.5H0.707107V5.20711Z" fill="var(--stroke-0, black)"/>
</svg>
