<svg preserveAspectRatio="none" width="100%" height="100%" overflow="visible" style="display: block;" viewBox="0 0 12.705 12" fill="none" xmlns="http://www.w3.org/2000/svg">
<path id="Vector" d="M1.14059 0.00785984L11.516 0C12.5794 0.120649 13.0797 1.36486 12.3833 2.19015L8.01717 7.00194C7.93032 7.86377 8.07769 8.81207 8.00224 9.66407C7.98416 9.86725 7.91932 9.92974 7.7798 10.059C7.02329 10.6006 6.32652 11.2867 5.57394 11.8244C5.19981 12.0916 4.8583 12.0814 4.70936 11.6015L4.69088 7.00155L0.210773 2.03884C-0.309549 1.19981 0.183656 0.163485 1.14059 0.00785984ZM5.64782 10.5306L7.05355 9.39212L7.05827 6.8082L7.13451 6.56061L11.7133 1.49062C11.8284 1.29845 11.7093 1.02139 11.4963 0.960473L1.20465 0.954578C0.99715 1.03043 0.880432 1.245 0.968855 1.45722C2.3349 3.10464 3.88053 4.61373 5.28037 6.23561C5.3515 6.31814 5.64782 6.64432 5.64782 6.72135V10.531V10.5306Z" fill="var(--fill-0, #1A3E73)"/>
</svg>
