<svg preserveAspectRatio="none" width="100%" height="100%" overflow="visible" style="display: block;" viewBox="0 0 236 236" fill="none" xmlns="http://www.w3.org/2000/svg">
<path id="Ellipse 39" d="M234.86 101.634C238.813 129.863 232.415 158.568 216.847 182.446C201.279 206.324 177.595 223.759 150.17 231.53C122.745 239.301 93.4347 236.883 67.6549 224.721C41.8751 212.56 21.3689 191.478 9.92588 165.371C-1.51709 139.264 -3.12324 109.898 5.40425 82.6989C13.9317 55.5 32.0164 32.3071 56.3161 17.4066C80.6158 2.50605 109.488 -3.09489 137.596 1.63885C165.705 6.3726 191.15 21.121 209.229 43.1585L203.163 48.1345C186.286 27.5622 162.533 13.7944 136.293 9.37538C110.054 4.95636 83.1014 10.1849 60.4173 24.0948C37.7332 38.0046 20.8509 59.6554 12.8904 85.046C4.92988 110.437 6.42924 137.85 17.1114 162.221C27.7936 186.592 46.9364 206.273 71.0022 217.626C95.068 228.979 122.43 231.237 148.031 223.982C173.632 216.728 195.742 200.451 210.275 178.161C224.808 155.871 230.781 129.074 227.09 102.722L234.86 101.634Z" fill="var(--fill-0, #F36C21)"/>
</svg>
